<svg width="228" height="27" viewBox="0 0 228 27" fill="none" xmlns="http://www.w3.org/2000/svg">
<path d="M14.0041 1.40666C13.8382 1.01031 13.4296 0.741821 12.9827 0.741821H11.2591C10.8123 0.741821 10.4165 0.984743 10.2377 1.38109L0.0875774 24.5354C-0.0656324 24.8806 -0.0145644 25.2769 0.21525 25.571C0.432298 25.8523 0.815326 26.0185 1.21112 26.0057L3.49649 25.8011C3.90505 25.7628 4.26255 25.5071 4.41576 25.1363L6.59899 19.8815H15.5235L17.579 25.0596C17.7322 25.4432 18.0897 25.6989 18.5238 25.7372L22.635 26.0696C22.635 26.0696 22.7116 26.0696 22.7499 26.0696C23.0946 26.0696 23.4265 25.9034 23.6436 25.6349C23.8734 25.3409 23.9245 24.9573 23.784 24.6121L14.0169 1.39388L14.0041 1.40666ZM13.9658 15.982H8.23324L11.1698 8.95003L13.9658 15.982Z" fill="#2A2A2A"/>
<path d="M221.501 2.85144H223.736C224.834 2.85144 225.447 3.52907 225.447 4.36011C225.447 4.97381 225.14 5.44687 224.681 5.70258L225.6 7.92723H224.476L223.774 5.9455H222.523V7.92723H221.501V2.86423V2.85144ZM223.71 5.0761C224.08 5.0761 224.4 4.84596 224.4 4.39847C224.4 3.98934 224.119 3.74642 223.659 3.74642H222.523V5.08888H223.71V5.0761Z" fill="#2A2A2A"/>
<path d="M223.366 1.64962C225.459 1.64962 227.158 3.35008 227.158 5.44688C227.158 7.54368 225.459 9.24413 223.366 9.24413C221.272 9.24413 219.574 7.54368 219.574 5.44688C219.574 3.35008 221.272 1.64962 223.366 1.64962ZM223.366 0.805786C220.812 0.805786 218.731 2.8898 218.731 5.44688C218.731 8.00395 220.812 10.088 223.366 10.088C225.919 10.088 228 8.00395 228 5.44688C228 2.8898 225.919 0.805786 223.366 0.805786Z" fill="#2A2A2A"/>
<path d="M110.13 10.5482H106.083C105.509 10.5482 105.036 10.9957 105.036 11.5583V14.972C105.036 15.5217 105.509 15.982 106.083 15.982H110.13C110.705 15.982 111.177 15.5345 111.177 14.972V11.5583C111.177 11.0085 110.705 10.5482 110.13 10.5482Z" fill="#2A2A2A"/>
<path d="M78.5308 15.8925C78.5308 21.761 83.4719 26.5043 89.5619 26.5043C95.652 26.5043 100.708 21.7482 100.708 15.8925V1.80301C100.708 1.25324 100.248 0.792969 99.6738 0.792969H97.5927C97.0182 0.792969 96.5458 1.24046 96.5458 1.80301V16.2249V16.2377C96.5458 19.498 93.788 22.1318 90.4046 22.1318C87.0212 22.1318 84.3911 19.4852 84.3911 16.2377V1.8158C84.3911 1.25324 83.9315 0.792969 83.3697 0.792969H79.5395C78.9777 0.792969 78.5181 1.25324 78.5181 1.8158V15.8797L78.5308 15.8925Z" fill="#2A2A2A"/>
<path d="M188.14 0.805786H179.113H175.334C174.76 0.805786 174.287 1.25327 174.287 1.81583V24.8551C174.287 25.1236 174.402 25.3793 174.594 25.571C174.785 25.7628 175.053 25.8651 175.334 25.8651H188.127C188.702 25.8651 189.174 25.4176 189.174 24.8551V22.8094C189.174 22.2724 188.689 21.8377 188.127 21.8377C187.565 21.8377 186.774 22.2213 184.361 22.2213H180.147V14.3838H187.438C188.012 14.3838 188.485 13.9364 188.485 13.3738V11.5711C188.485 11.0213 188.012 10.561 187.438 10.561H180.147V4.4624H184.361C186.774 4.4624 187.578 4.84596 188.127 4.84596C188.676 4.84596 189.174 4.41126 189.174 3.87428V1.82861C189.174 1.27884 188.702 0.818572 188.127 0.818572L188.14 0.805786Z" fill="#2A2A2A"/>
<path d="M73.7686 2.36559C73.5771 2.27609 68.9042 0.230432 63.6823 0.524495C56.0473 0.971983 51.1957 5.91992 51.0297 13.4249C50.8765 20.2012 54.8089 24.9957 61.5629 26.2487C62.5077 26.4277 63.478 26.5172 64.4356 26.5172C69.5426 26.5172 73.2707 24.0751 73.4239 23.9729C73.7558 23.7555 73.9218 23.3847 73.858 23.0012L73.475 20.4057C73.4239 20.035 73.1558 19.7281 72.7855 19.6003C72.4152 19.4724 72.0195 19.5491 71.7258 19.8176C71.5854 19.9455 68.1126 22.9884 64.3717 22.835C60.35 22.7327 57.3496 19.1911 57.0687 14.1921C56.9155 11.3921 57.273 4.80759 64.027 4.0149C69.0829 3.42677 71.0491 6.92997 71.1257 7.08339C71.3172 7.44138 71.7258 7.64594 72.1216 7.62037C72.5302 7.5948 72.8876 7.3391 73.0281 6.96832L74.2921 3.63134C74.4836 3.13271 74.2538 2.59573 73.7558 2.37837L73.7686 2.36559Z" fill="#2A2A2A"/>
<path d="M165.963 0.805754H162.184C161.609 0.805754 161.137 1.25324 161.137 1.8158V10.561H150.604V1.8158C150.604 1.26603 150.131 0.805754 149.557 0.805754H145.777C145.203 0.805754 144.73 1.25324 144.73 1.8158V24.855C144.73 25.4048 145.203 25.8651 145.777 25.8651H149.557C150.131 25.8651 150.604 25.4176 150.604 24.855V14.371H161.137V24.855C161.137 25.4048 161.609 25.8651 162.184 25.8651H165.963C166.537 25.8651 167.01 25.4176 167.01 24.855V1.80301C167.01 1.25324 166.537 0.792969 165.963 0.792969V0.805754Z" fill="#2A2A2A"/>
<path d="M138.091 2.36559C137.9 2.27609 133.252 0.230432 128.005 0.524495C120.37 0.971983 115.518 5.91992 115.352 13.4249C115.199 20.2012 119.132 24.9957 125.886 26.2487C126.83 26.4277 127.801 26.5172 128.758 26.5172C133.865 26.5172 137.593 24.0751 137.747 23.9729C138.079 23.7555 138.245 23.3847 138.181 23.0012L137.798 20.4057C137.747 20.035 137.479 19.7281 137.108 19.6003C136.738 19.4724 136.329 19.5491 136.049 19.8176C135.908 19.9455 132.423 22.9884 128.694 22.835C124.673 22.7327 121.672 19.1911 121.391 14.1921C121.238 11.3921 121.596 4.80759 128.35 4.0149C133.393 3.42677 135.372 6.92997 135.448 7.08339C135.64 7.44138 136.036 7.65873 136.444 7.62037C136.853 7.5948 137.21 7.3391 137.351 6.96832L138.615 3.63134C138.806 3.13271 138.564 2.59573 138.079 2.37837L138.091 2.36559Z" fill="#2A2A2A"/>
<path d="M204.712 12.0185L214.632 2.44228C214.9 2.18657 214.977 1.80301 214.837 1.45781C214.696 1.12539 214.351 0.908037 213.968 0.908037L210.879 1.17653C210.623 1.2021 210.381 1.27881 210.215 1.44502L201.507 9.97286V1.70073C201.507 1.2021 201.086 0.792969 200.562 0.792969H196.592C196.068 0.792969 195.647 1.2021 195.647 1.70073V24.9445C195.647 25.4432 196.068 25.8523 196.592 25.8523H200.562C201.086 25.8523 201.507 25.4432 201.507 24.9445V16.5701L208.185 24.919C208.338 25.1107 208.58 25.2258 208.836 25.2258L214.236 25.6477C214.556 25.6477 214.837 25.4815 214.977 25.2002C215.117 24.9317 215.079 24.6121 214.888 24.3692L204.725 12.0185H204.712Z" fill="#2A2A2A"/>
<path d="M47.9273 2.36559C47.7358 2.27609 43.0756 0.230432 37.841 0.524495C30.206 0.971983 25.3544 5.91992 25.1884 13.4249C25.0352 20.2012 28.9676 24.9957 35.7216 26.2487C36.6664 26.4277 37.6367 26.5172 38.5943 26.5172C43.7013 26.5172 47.4294 24.0751 47.5826 23.9729C47.9145 23.7555 48.0805 23.3847 48.0167 23.0012L47.6336 20.4057C47.5826 20.035 47.3145 19.7281 46.9442 19.6003C46.5739 19.4724 46.1654 19.5491 45.8845 19.8176C45.5142 20.1373 42.233 22.9756 38.5304 22.8222C34.5087 22.7199 31.5083 19.1784 31.2274 14.1793C31.0742 11.3793 31.4317 4.79481 38.1857 4.00212C43.2289 3.41399 45.2078 6.91718 45.2844 7.07061C45.4759 7.4286 45.8845 7.64595 46.2803 7.60759C46.6889 7.58202 47.0463 7.32631 47.1868 6.95554L48.4508 3.61856C48.6423 3.11993 48.3997 2.58294 47.9145 2.36559H47.9273Z" fill="#2A2A2A"/>
</svg>
