<svg width="54" height="54" viewBox="0 0 54 54" fill="none" xmlns="http://www.w3.org/2000/svg">
<path fill-rule="evenodd" clip-rule="evenodd" d="M27.0002 0.666748L50.0942 14.0001V40.6667L27.0002 54.0001L3.90615 40.6667V14.0001L27.0002 0.666748Z" fill="#23ADDE"/>
<path fill-rule="evenodd" clip-rule="evenodd" d="M32.9695 29.4869L35.6211 33.893C35.6803 33.9915 35.7127 34.102 35.7142 34.2104C35.7182 34.5139 35.4841 34.7262 35.1912 34.6846L32.7117 34.3326C32.4976 34.3023 32.3063 34.4082 32.2267 34.6013L31.3047 36.8373C31.2657 36.9317 31.1989 37.0076 31.1126 37.0554C30.8712 37.1892 30.541 37.0742 30.3752 36.7987L27.605 32.1955C29.7377 32.0142 31.6339 31.0034 32.9695 29.4869ZM26.2206 32.1955L23.4504 36.7987C23.2845 37.0742 22.9544 37.1892 22.713 37.0554C22.6267 37.0076 22.5598 36.9317 22.5209 36.8373L21.5988 34.6013C21.5192 34.4082 21.3279 34.3023 21.1139 34.3326L18.6343 34.6846C18.3415 34.7262 18.1073 34.5139 18.1114 34.2104C18.1128 34.102 18.1452 33.9915 18.2045 33.893L20.8561 29.4869C22.1917 31.0034 24.0879 32.0142 26.2206 32.1955ZM26.9128 30.7578C23.2671 30.7578 20.3117 27.8024 20.3117 24.1568C20.3117 20.5111 23.2671 17.5557 26.9128 17.5557C30.5585 17.5557 33.5139 20.5111 33.5139 24.1568C33.5139 27.8024 30.5585 30.7578 26.9128 30.7578Z" fill="white"/>
</svg>
