<svg width="54" height="54" viewBox="0 0 54 54" fill="none" xmlns="http://www.w3.org/2000/svg">
<path fill-rule="evenodd" clip-rule="evenodd" d="M6.62888 42.671L4.13051 41.3391C1.02431 39.6832 -0.419879 36.0169 0.722497 32.6874L1.64133 30.0094C2.33276 27.9942 2.37085 25.8122 1.75017 23.7741L0.925355 21.0657C-0.100127 17.6983 1.47114 14.0846 4.63324 12.5381L7.17656 11.2942C9.09045 10.3582 10.6603 8.84219 11.6626 6.96213L12.9945 4.46376C14.6504 1.35756 18.3167 -0.0866271 21.6462 1.05575L24.3242 1.97458C26.3394 2.66601 28.5214 2.7041 30.5595 2.08342L33.2679 1.25861C36.6353 0.233125 40.2489 1.80439 41.7955 4.96649L43.0394 7.50981C43.9754 9.42371 45.4914 10.9935 47.3714 11.9958L49.8698 13.3277C52.976 14.9837 54.4202 18.65 53.2778 21.9795L52.359 24.6574C51.6676 26.6727 51.6295 28.8546 52.2502 30.8928L53.075 33.6012C54.1005 36.9685 52.5292 40.5822 49.3671 42.1287L46.8238 43.3726C44.9099 44.3087 43.34 45.8246 42.3378 47.7047L41.0059 50.2031C39.3499 53.3093 35.6836 54.7535 32.3541 53.6111L29.6761 52.6922C27.6609 52.0008 25.4789 51.9627 23.4408 52.5834L20.7324 53.4082C17.3651 54.4337 13.7514 52.8624 12.2049 49.7003L10.961 47.157C10.0249 45.2431 8.50894 43.6733 6.62888 42.671Z" fill="#3487EB"/>
<path opacity="0.01" fill-rule="evenodd" clip-rule="evenodd" d="M11 24.6667H27V40.6667H11V24.6667Z" fill="white" fill-opacity="0.01"/>
<path fill-rule="evenodd" clip-rule="evenodd" d="M19.0002 36.7159L23.1202 39.3335L22.0268 34.4001L25.6668 31.0808L20.8735 30.6528L19.0002 26.0001L17.1268 30.6528L12.3335 31.0808L15.9735 34.4001L14.8802 39.3335L19.0002 36.7159Z" fill="white"/>
<path opacity="0.01" fill-rule="evenodd" clip-rule="evenodd" d="M27 24.6667H43V40.6667H27V24.6667Z" fill="white" fill-opacity="0.01"/>
<path fill-rule="evenodd" clip-rule="evenodd" d="M35.0002 36.7159L39.1202 39.3335L38.0268 34.4001L41.6668 31.0808L36.8735 30.6528L35.0002 26.0001L33.1268 30.6528L28.3335 31.0808L31.9735 34.4001L30.8802 39.3335L35.0002 36.7159Z" fill="white"/>
<path opacity="0.01" fill-rule="evenodd" clip-rule="evenodd" d="M19 11.3334H35V27.3334H19V11.3334Z" fill="white" fill-opacity="0.01"/>
<path fill-rule="evenodd" clip-rule="evenodd" d="M27.0002 23.3825L31.1202 26.0001L30.0268 21.0667L33.6668 17.7474L28.8735 17.3194L27.0002 12.6667L25.1268 17.3194L20.3335 17.7474L23.9735 21.0667L22.8802 26.0001L27.0002 23.3825Z" fill="white"/>
</svg>
