<svg width="32" height="33" viewBox="0 0 32 33" fill="none" xmlns="http://www.w3.org/2000/svg">
<path fill-rule="evenodd" clip-rule="evenodd" d="M20.6667 19H19.6133L19.24 18.64C20.5467 17.12 21.3333 15.1467 21.3333 13C21.3333 8.21337 17.4533 4.33337 12.6667 4.33337C7.88 4.33337 4 8.21337 4 13C4 17.7867 7.88 21.6667 12.6667 21.6667C14.8133 21.6667 16.7867 20.88 18.3067 19.5734L18.6667 19.9467V21L25.3333 27.6534L27.32 25.6667L20.6667 19ZM12.6667 19C9.34668 19 6.66668 16.32 6.66668 13C6.66668 9.68004 9.34668 7.00004 12.6667 7.00004C15.9867 7.00004 18.6667 9.68004 18.6667 13C18.6667 16.32 15.9867 19 12.6667 19Z" fill="#84818A"/>
</svg>
