<svg width="34" height="28" viewBox="0 0 34 28" fill="none" xmlns="http://www.w3.org/2000/svg">
<g clip-path="url(#clip0_16_541)">
<path d="M33.9947 5.40561C33.9947 5.40561 33.9947 5.40561 33.9947 5.40515C33.9896 4.72354 33.4268 4.17167 32.7322 4.17076L8.34297 4.14243L7.55546 0.981526C7.49742 0.748078 7.3753 0.546153 7.21232 0.389455C6.98387 0.161947 6.66719 0.0203249 6.31615 0.0194112L1.27347 0.00524902H1.26976C0.573257 0.00524902 0.00769734 0.559858 0.00537567 1.24558C0.00351833 1.93268 0.567685 2.49094 1.26605 2.49322L5.33083 2.5051L9.97976 21.159C9.99926 21.238 10.0267 21.3134 10.0601 21.3847C10.2129 21.9014 10.6972 22.2792 11.2715 22.2801L29.2952 22.3089H29.2975C29.9949 22.3089 30.5605 21.7533 30.5619 21.0672C30.5628 20.3801 29.9977 19.8223 29.2998 19.8213L12.2434 19.7939L11.8682 18.2895L30.2229 16.0533C30.2703 16.0483 30.3167 16.0405 30.3627 16.03C30.3655 16.0295 30.3687 16.0286 30.3715 16.0282C30.3873 16.0245 30.4031 16.0204 30.4184 16.0163C30.4235 16.0149 30.4281 16.0135 30.4332 16.0122C30.4472 16.0081 30.4606 16.0039 30.4741 15.9998C30.4904 15.9948 30.5066 15.9889 30.5229 15.9829C30.527 15.9816 30.5317 15.9797 30.5359 15.9784C30.5493 15.9733 30.5623 15.9679 30.5758 15.9624C30.5786 15.961 30.5818 15.9601 30.5846 15.9587C30.5986 15.9528 30.6125 15.9464 30.6264 15.94C30.6273 15.94 30.6283 15.9391 30.6292 15.9386C30.6877 15.9112 30.7434 15.8792 30.7964 15.844C30.7991 15.8422 30.8019 15.8404 30.8047 15.8386C30.8149 15.8317 30.8251 15.8244 30.8354 15.8171C30.8409 15.813 30.8465 15.8089 30.8521 15.8048C30.8604 15.7984 30.8683 15.7924 30.8767 15.786C30.8855 15.7792 30.8939 15.7719 30.9027 15.765C30.9078 15.7609 30.9129 15.7568 30.918 15.7522C31.0364 15.6503 31.1367 15.5256 31.2105 15.3826C31.2124 15.3794 31.2138 15.3762 31.2157 15.373C31.2222 15.3602 31.2282 15.3479 31.2342 15.3347C31.2375 15.3274 31.2407 15.32 31.244 15.3127C31.2477 15.3041 31.2514 15.2958 31.2551 15.2872C31.2593 15.2766 31.2635 15.2666 31.2677 15.2561C31.2695 15.2511 31.2714 15.246 31.2732 15.2415C31.2853 15.2086 31.2964 15.1752 31.3057 15.141L33.9497 5.77657C33.9831 5.65824 33.9975 5.53901 33.9956 5.42205C33.9956 5.42023 33.9956 5.41794 33.9956 5.41612C33.9956 5.41246 33.9956 5.40881 33.9956 5.40561H33.9947ZM30.3446 9.24767L26.3671 9.50031V6.65142L31.0759 6.65691L30.3446 9.24767ZM19.5683 11.1975V14.8445L15.3373 15.3598V11.4661L19.5683 11.1975ZM15.3373 10.2002V6.63863L19.5683 6.64366V9.93157L15.3373 10.2002ZM20.8522 11.1162L25.0832 10.8475V14.1725L20.8522 14.6878V11.1157V11.1162ZM20.8522 9.85025V6.64503L25.0832 6.65005V9.58162L20.8522 9.85025ZM14.0534 6.63726V10.282L9.93843 10.5433L8.96379 6.63178L14.0538 6.63772L14.0534 6.63726ZM11.2622 15.8564L10.2486 11.7891L14.0534 11.5479V15.5165L11.2622 15.8564ZM26.3671 14.0162V10.7662L29.9805 10.5369L29.0918 13.6841L26.3666 14.0162H26.3671Z" fill="white" stroke="white" stroke-width="0.23" stroke-miterlimit="10"/>
<path d="M26.5759 27.995C27.9328 27.995 29.0327 26.9128 29.0327 25.5778C29.0327 24.2428 27.9328 23.1606 26.5759 23.1606C25.2191 23.1606 24.1191 24.2428 24.1191 25.5778C24.1191 26.9128 25.2191 27.995 26.5759 27.995Z" fill="white" stroke="white" stroke-width="0.23" stroke-miterlimit="10"/>
<path d="M13.9954 27.995C15.3522 27.995 16.4522 26.9128 16.4522 25.5778C16.4522 24.2428 15.3522 23.1606 13.9954 23.1606C12.6385 23.1606 11.5386 24.2428 11.5386 25.5778C11.5386 26.9128 12.6385 27.995 13.9954 27.995Z" fill="white" stroke="white" stroke-width="0.23" stroke-miterlimit="10"/>
</g>
<defs>
<clipPath id="clip0_16_541">
<rect width="34" height="28" fill="white"/>
</clipPath>
</defs>
</svg>
