<svg width="54" height="54" viewBox="0 0 54 54" fill="none" xmlns="http://www.w3.org/2000/svg">
<path fill-rule="evenodd" clip-rule="evenodd" d="M27.0002 0.666748L50.0942 14.0001V40.6667L27.0002 54.0001L3.90615 40.6667V14.0001L27.0002 0.666748Z" fill="#23ADDE"/>
<path fill-rule="evenodd" clip-rule="evenodd" d="M17.2222 35.3334H20.7777V24.6668H17.2222V35.3334ZM36.7777 25.5557C36.7777 24.5779 35.9777 23.7779 34.9999 23.7779H29.3911L30.2355 19.7157L30.2622 19.4312C30.2622 19.0668 30.1111 18.729 29.8711 18.489L28.9288 17.5557L23.0799 23.4134C22.7511 23.7334 22.5555 24.1779 22.5555 24.6668V33.5557C22.5555 34.5334 23.3555 35.3334 24.3333 35.3334H32.3333C33.0711 35.3334 33.7022 34.889 33.9688 34.249L36.6533 27.9823C36.7333 27.7779 36.7777 27.5646 36.7777 27.3334V25.6357L36.7688 25.6268L36.7777 25.5557Z" fill="white"/>
</svg>
